# xmcd
#
# Track frame offsets:
#	150
#	13208
#	30773
#	50207
#	61463
#	79794
#	104668
#	115996
#	127329
#	140161
#	151867
#	165601
#
# Disc length: 2436 seconds
#
# Revision: 1
# Processed by: cddbd v1.5.2PL0 Copyright (c) Steve Scherf et al.
# Submitted via: audiograbber 1.83.01
#
DISCID=aa09820c
DTITLE=сйкгмоу калпяимг [2001] - ои емдонес йатайтгсеис емос йоуйоу
DYEAR=2001
DGENRE=
TTITLE0=ациамапа б' - йупяос
TTITLE1=хеатяимои л.а.
TTITLE2=тяиамтажуккайи
TTITLE3=бяовг
TTITLE4=йаядиа лоу
TTITLE5=ока аккафоум
TTITLE6=поте пиа
TTITLE7=о еяыс
TTITLE8=то тфаф бакс дуо евхяым
TTITLE9=пацас мте алоя - кояйа
TTITLE10=бакйамиа
TTITLE11=ема ав циа то кицо тоу йослоу
EXTD=
EXTT0=
EXTT1=
EXTT2=
EXTT3=
EXTT4=
EXTT5=
EXTT6=
EXTT7=
EXTT8=
EXTT9=
EXTT10=
EXTT11=
PLAYORDER=
